<svg width="167" height="32" viewBox="0 0 167 32" fill="none" xmlns="http://www.w3.org/2000/svg">
<path fill-rule="evenodd" clip-rule="evenodd" d="M15.7531 1.33398C18.0504 1.33398 20.1994 1.86698 22.1261 2.85682C21.4592 3.0091 20.7922 3.23753 20.0512 3.5421C17.2352 5.06493 14.3451 8.1106 11.4551 12.7553C10.714 12.6791 10.1953 12.6791 9.75067 12.6791C7.82395 12.6791 6.19366 13.0598 4.93388 13.8974C3.67411 14.7349 3.00717 15.7248 3.00717 16.943C3.00717 17.5522 3.22948 18.009 3.6 18.3897C3.97052 18.6943 4.48926 18.9227 5.00799 18.9227C5.52672 18.9227 5.97134 18.7705 6.34187 18.542C6.71239 18.3136 6.8606 18.009 6.8606 17.7045C6.8606 17.3999 6.78649 17.0953 6.71239 16.8669C6.63828 16.6385 6.49007 16.5623 6.41597 16.5623C6.63828 15.9532 7.08291 15.5725 7.74985 15.2679C8.41679 15.0395 9.23194 14.8111 10.2694 14.8111C9.52835 16.1055 8.86142 17.3999 8.26858 18.7705C6.71239 22.1968 5.74903 25.0902 5.45261 27.2222C2.71075 24.4811 1.00635 20.674 1.00635 16.4101C1.15456 8.03446 7.67574 1.33398 15.7531 1.33398ZM25.2377 4.99033L20.4209 28.2897H15.6782L18.1978 15.9547C16.7157 15.2695 15.2336 14.8888 13.7515 14.7365C11.7507 19.2288 10.4168 23.4166 9.74988 27.1476C9.52756 28.2136 9.45346 29.1273 9.45346 29.8887C11.3802 30.8024 13.4551 31.3354 15.7523 31.3354C23.8297 31.3354 30.3509 24.6349 30.3509 16.3355C30.2768 11.767 28.3501 7.73144 25.2377 4.99033ZM14.42 13.2119C15.9021 13.5165 17.2359 13.8972 18.4216 14.354L20.3483 5.14088C18.4957 6.20686 16.569 8.87182 14.42 13.2119Z" fill="#2B8BCA"/>
<path fill-rule="evenodd" clip-rule="evenodd" d="M158.404 12.6094V14.1322H161.739V21.7464H163.665V14.1322H167V12.6094H158.404Z" fill="#2B8BCA"/>
<path fill-rule="evenodd" clip-rule="evenodd" d="M152.549 19.2337C152.327 18.853 152.253 18.2439 152.253 17.3302C152.253 16.5687 152.327 15.9596 152.401 15.5789C152.697 14.5891 153.364 14.1322 154.55 14.1322H157.736V12.6094H153.957C152.771 12.6094 151.882 12.9139 151.215 13.5992C150.548 14.2845 150.178 15.5028 150.178 17.3302C150.178 18.853 150.474 19.9951 150.993 20.6804C151.586 21.4418 152.475 21.8225 153.661 21.8225H157.959V20.2997H154.772C153.587 20.1474 152.845 19.8428 152.549 19.2337Z" fill="#2B8BCA"/>
<path fill-rule="evenodd" clip-rule="evenodd" d="M148.917 17.4805C149.214 17.1759 149.362 16.719 149.362 16.1099C149.362 14.6632 148.917 13.6734 148.102 13.1404C147.509 12.7597 146.546 12.5312 145.138 12.5312C143.582 12.5312 142.47 12.8358 141.803 13.3688C141.358 13.7495 141.062 14.2825 140.914 14.9678C140.766 15.4246 140.766 16.1861 140.766 17.1759C140.766 18.7749 140.988 19.8409 141.433 20.5261C141.951 21.2876 142.841 21.6683 144.174 21.6683H149.065V20.1454H144.693C143.656 20.1454 143.063 19.7647 142.915 19.0794C142.841 18.7749 142.766 18.318 142.766 17.8612H147.954C148.324 17.8612 148.695 17.7089 148.917 17.4805ZM146.845 16.2603H142.769C142.769 15.4989 142.917 14.9659 143.139 14.6613C143.51 14.2806 144.103 14.0522 144.992 14.0522C145.733 14.0522 146.326 14.2044 146.696 14.509C147.067 14.8136 147.215 15.1943 147.215 15.7273C147.289 16.108 147.141 16.2603 146.845 16.2603Z" fill="#2B8BCA"/>
<path fill-rule="evenodd" clip-rule="evenodd" d="M139.432 16.4926C139.728 16.188 139.802 15.655 139.802 14.9698C139.802 14.2084 139.654 13.6754 139.358 13.2947C138.987 12.8378 138.32 12.6094 137.357 12.6094H133.355C132.836 12.6094 132.466 12.7617 132.169 12.9901C131.873 13.2185 131.799 13.5992 131.799 14.0561V20.3758C131.799 20.8327 131.947 21.2134 132.169 21.3657C132.392 21.5941 132.762 21.6702 133.355 21.6702H137.579C138.394 21.6702 138.987 21.4418 139.432 21.0611C139.802 20.6804 140.024 19.9951 140.024 19.0814C140.024 18.3962 139.876 17.8632 139.654 17.5586C139.358 17.254 139.061 17.0256 138.542 16.9495C138.765 16.9495 139.135 16.7972 139.432 16.4926ZM137.506 19.9195C137.358 20.0718 137.061 20.224 136.617 20.224H134.171C133.949 20.224 133.801 20.1479 133.727 20.0718C133.653 19.9956 133.653 19.8433 133.653 19.691V17.7875H136.691C137.061 17.7875 137.358 17.8636 137.506 18.0921C137.654 18.2444 137.728 18.5489 137.728 19.0058C137.802 19.3865 137.728 19.691 137.506 19.9195ZM137.506 15.9601C137.358 16.1124 137.061 16.2647 136.691 16.2647H133.653V14.6657C133.653 14.5134 133.727 14.3612 133.801 14.285C133.875 14.2089 134.023 14.2089 134.171 14.2089H136.765C137.135 14.2089 137.358 14.285 137.58 14.4373C137.728 14.5896 137.876 14.8942 137.876 15.2749C137.802 15.5794 137.728 15.8079 137.506 15.9601Z" fill="#2B8BCA"/>
<path fill-rule="evenodd" clip-rule="evenodd" d="M128.393 16.2642H124.095V12.6094H122.168V21.7464H124.095V17.787H128.393V21.7464H130.319V12.6094H128.393V16.2642Z" fill="#2B8BCA"/>
<path fill-rule="evenodd" clip-rule="evenodd" d="M118.906 9.5625C118.462 9.5625 118.165 9.63864 117.869 9.86707C117.573 10.0955 117.276 10.4001 116.98 10.9331L112.237 18.8518C112.089 19.0802 112.015 19.2325 111.941 19.2325C111.792 19.2325 111.718 19.0802 111.718 18.6995L111.792 9.71478H109.569V19.8416C109.569 21.2122 110.162 21.8975 111.274 21.8975C111.792 21.8975 112.237 21.7452 112.534 21.5168C112.682 21.3645 112.904 21.1361 113.126 20.7553L117.943 12.7605C118.165 12.3797 118.314 12.2275 118.388 12.2275C118.536 12.2275 118.536 12.3797 118.536 12.6082L118.462 21.7452H120.685V11.6945C120.685 10.2478 120.092 9.5625 118.906 9.5625Z" fill="#2B8BCA"/>
<path fill-rule="evenodd" clip-rule="evenodd" d="M102.455 12.4531H97.3417V14.0521H101.788C102.233 14.0521 102.529 14.2044 102.751 14.4328C102.9 14.6612 102.974 14.9658 102.974 15.3465V16.0318H99.0461C98.3051 16.0318 97.7864 16.1841 97.4158 16.5648C96.8971 17.0216 96.6748 17.7831 96.6748 18.849C96.6748 20.0673 96.9712 20.9049 97.49 21.3617C97.8605 21.6663 98.3792 21.8186 99.1202 21.8186H103.418C104.011 21.8186 104.456 21.6663 104.678 21.4379C104.9 21.2094 105.049 20.8287 105.049 20.2196V15.4227C105.049 13.443 104.159 12.4531 102.455 12.4531ZM103.048 19.6892C103.048 19.8415 102.974 19.9938 102.9 20.0699C102.826 20.146 102.678 20.146 102.455 20.146H99.7134C99.417 20.146 99.2688 20.0699 99.0465 19.8415C98.8982 19.613 98.75 19.3085 98.75 18.8516C98.75 18.3948 98.8241 18.0141 98.9723 17.8618C99.1206 17.6334 99.3429 17.5572 99.7134 17.5572H103.048V19.6892Z" fill="#2B8BCA"/>
<path fill-rule="evenodd" clip-rule="evenodd" d="M92.2279 12.4531H89.0414C88.5227 12.4531 88.1522 12.5293 87.9299 12.7577C87.5593 13.0623 87.4111 13.443 87.4111 13.8998V24.712H89.412V21.7424H91.9315C93.4136 21.7424 94.5252 21.2856 95.118 20.448C95.5626 19.7627 95.859 18.5445 95.859 16.9455C95.859 15.3465 95.5626 14.2044 94.8957 13.5191C94.2287 12.7577 93.3395 12.4531 92.2279 12.4531ZM93.339 19.304C92.9685 19.9131 92.3756 20.1415 91.6346 20.1415H89.3374V14.4309C89.3374 14.2786 89.4115 14.2025 89.4856 14.1263C89.5597 14.0502 89.6338 13.974 89.782 13.974H91.7087C92.598 13.974 93.1167 14.3547 93.4131 15.04C93.5613 15.4207 93.6354 16.106 93.6354 17.0197C93.7095 18.1618 93.6354 18.9232 93.339 19.304Z" fill="#2B8BCA"/>
<path fill-rule="evenodd" clip-rule="evenodd" d="M85.8569 17.4062C86.1534 17.1016 86.3016 16.6448 86.3016 16.0357C86.3016 14.589 85.8569 13.5991 85.0418 12.99C84.449 12.6093 83.4115 12.3809 82.0776 12.3809C80.5214 12.3809 79.3357 12.6854 78.6688 13.2184C78.2242 13.5991 77.9278 14.1321 77.7796 14.8174C77.6313 15.2742 77.6313 16.0357 77.6313 17.1016C77.6313 18.7006 77.8537 19.8428 78.2983 20.4519C78.817 21.2133 79.7804 21.594 81.0402 21.594H86.0793V19.995H81.633C80.5955 19.995 80.0027 19.6143 79.7804 18.9291C79.7063 18.6245 79.6322 18.1676 79.6322 17.6346H84.8936C85.2641 17.7869 85.6346 17.6346 85.8569 17.4062ZM83.7815 16.1882H79.6317C79.6317 15.4267 79.7799 14.8938 80.0763 14.5892C80.4469 14.2085 81.0397 13.9801 82.003 13.9801C82.7441 13.9801 83.3369 14.1323 83.7074 14.4369C84.078 14.7415 84.3003 15.1222 84.3003 15.6552C84.2262 16.0359 84.078 16.1882 83.7815 16.1882Z" fill="#2B8BCA"/>
<path fill-rule="evenodd" clip-rule="evenodd" d="M68.3672 14.0521H71.776V21.7424H73.7768V14.0521H77.1856V12.4531H68.3672V14.0521Z" fill="#2B8BCA"/>
<path fill-rule="evenodd" clip-rule="evenodd" d="M67.33 15.9556H63.2542V12.4531H61.2534V20.2957C61.2534 20.8287 61.4016 21.1333 61.6239 21.3617C61.8463 21.5901 62.2168 21.6663 62.6614 21.6663H67.2559C68.071 21.6663 68.6639 21.514 68.9603 21.2094C69.4049 20.7526 69.6272 19.9912 69.6272 18.9252C69.6272 17.8592 69.4049 17.0978 69.0344 16.6409C68.5898 16.1841 68.071 15.9556 67.33 15.9556ZM67.2549 19.8395C67.1067 20.0679 66.8103 20.1441 66.3656 20.1441H63.772C63.5497 20.1441 63.4014 20.0679 63.3273 19.9918C63.2532 19.9156 63.1791 19.7634 63.1791 19.4588V17.4791H66.4397C66.8102 17.4791 67.1067 17.5552 67.2549 17.7837C67.4031 17.9359 67.4772 18.3167 67.4772 18.7735C67.5513 19.3065 67.4772 19.6872 67.2549 19.8395Z" fill="#2B8BCA"/>
<path fill-rule="evenodd" clip-rule="evenodd" d="M55.77 12.3797C55.1031 12.3797 54.6585 12.6081 54.4362 13.1411L50.8791 21.4405L46.507 10.7045C46.2847 10.1715 46.0624 9.86698 45.7659 9.63855C45.4695 9.41013 45.099 9.33398 44.5803 9.33398C44.0615 9.33398 43.6169 9.41013 43.3946 9.63855C43.0982 9.86698 42.8759 10.1715 42.6536 10.7045L38.0591 21.7451H40.4304L41.6161 18.6233H47.3962L48.656 21.7451H50.805H51.0273H52.8059L55.5477 14.5878C55.6218 14.4355 55.6959 14.3593 55.6959 14.3593C55.77 14.3593 55.77 14.4355 55.8441 14.5878L58.586 21.7451H60.6609L57.0298 13.1411C56.8816 12.6081 56.437 12.3797 55.77 12.3797ZM42.2069 17.0224L44.1336 11.9971C44.2818 11.6925 44.3559 11.4641 44.5041 11.4641C44.5782 11.4641 44.7264 11.6164 44.8746 11.9971L46.8013 17.0224H42.2069Z" fill="#2B8BCA"/>
</svg>
